<svg xmlns="http://www.w3.org/2000/svg" viewBox="0 0 821.25 212.39">
  <g>
    <g>
      <path d="M303.47,152.11a16.67,16.67,0,0,1-4.56-12V42.25H281v95.6a37.5,37.5,0,0,0,4.19,17.8,31.24,31.24,0,0,0,11.93,12.49,35.46,35.46,0,0,0,18.35,4.56h35V156.86h-35Q308,156.86,303.47,152.11Z"/>
      <path d="M378.48,39.46A11.77,11.77,0,0,0,366.93,51a11.55,11.55,0,1,0,19.66-8.1A11.11,11.11,0,0,0,378.48,39.46Z"/>
      <rect x="369.72" y="77.66" width="17.33" height="95.04"/>
      <path d="M479,81.76q-9.79-6.33-24.51-6.34A43.44,43.44,0,0,0,430.66,82a44.89,44.89,0,0,0-16,17.79,55,55,0,0,0-5.78,25.44q0,14.35,6.81,25.07a45.09,45.09,0,0,0,18.91,16.58q12.1,5.86,27.77,5.87h24.41V158H462a43.6,43.6,0,0,1-16.67-3.08,30,30,0,0,1-12.4-9.13A27.81,27.81,0,0,1,427.12,131h70.81a23.14,23.14,0,0,0,.47-3.91c.06-1.5.09-2.92.09-4.29a57.52,57.52,0,0,0-4.84-24A39.2,39.2,0,0,0,479,81.76Zm-52.09,37.09a39,39,0,0,1,2.24-10.44,30.09,30.09,0,0,1,5.4-9.41,27.05,27.05,0,0,1,8.48-6.71,24.87,24.87,0,0,1,11.46-2.52,28.33,28.33,0,0,1,10.72,1.87,22.86,22.86,0,0,1,7.64,4.94,25.78,25.78,0,0,1,4.94,6.89,30.79,30.79,0,0,1,2.6,7.83,41.13,41.13,0,0,1,.75,7.55Z"/>
      <path d="M537.06,144.93l43.8-27.76a26.52,26.52,0,0,0,8.29-8.29A19.85,19.85,0,0,0,592,98.35a20.9,20.9,0,0,0-10-17.89,19.36,19.36,0,0,0-10.34-2.8H518.24V92.38h48.27a6.4,6.4,0,0,1,4.84,2,6,6,0,0,1,1.87,4.19,7.75,7.75,0,0,1-.84,3.54,9.18,9.18,0,0,1-3.64,3.36L525,133.19a28.63,28.63,0,0,0-8.48,8.3A19.3,19.3,0,0,0,513.58,152a20.79,20.79,0,0,0,10.07,17.89,20.24,20.24,0,0,0,10.62,2.79h56.09V158H539.49a6.58,6.58,0,0,1-5-2,6,6,0,0,1-1.87-4.19,7.81,7.81,0,0,1,.84-3.54A9.21,9.21,0,0,1,537.06,144.93Z"/>
      <path d="M680.46,81.76q-9.78-6.33-24.5-6.34-13.61,0-23.86,6.53a44.94,44.94,0,0,0-16,17.79,54.89,54.89,0,0,0-5.78,25.44q0,14.35,6.8,25.07A45.12,45.12,0,0,0,636,166.83q12.11,5.86,27.76,5.87H688.2V158H663.41a43.61,43.61,0,0,1-16.68-3.08,30.07,30.07,0,0,1-12.39-9.13A27.82,27.82,0,0,1,628.56,131h70.82a23.21,23.21,0,0,0,.46-3.91c.06-1.5.1-2.92.1-4.29a57.52,57.52,0,0,0-4.85-24A39.13,39.13,0,0,0,680.46,81.76Zm-52.09,37.09a39.43,39.43,0,0,1,2.24-10.44A29.92,29.92,0,0,1,636,99a26.9,26.9,0,0,1,8.47-6.71A24.91,24.91,0,0,1,656,89.77a28.24,28.24,0,0,1,10.71,1.87,22.86,22.86,0,0,1,7.64,4.94,25.56,25.56,0,0,1,4.94,6.89,30.82,30.82,0,0,1,2.61,7.83,42,42,0,0,1,.75,7.55Z"/>
      <path d="M730.5,39.46A11.79,11.79,0,0,0,718.94,51a11.56,11.56,0,1,0,19.66-8.1A11.09,11.09,0,0,0,730.5,39.46Z"/>
      <rect x="721.74" y="77.66" width="17.33" height="95.04"/>
      <path d="M821.25,92.38V77.66H788.64V53.81H771.49V77.66h-16.4V92.38h16.4v53.3q0,12.49,7.18,19.75t19.84,7.27h22.37V158h-19.2q-6.15,0-9.6-3.63t-3.44-9.79V92.38Z"/>
    </g>
    <g>
      <path d="M155,106.38a65.28,65.28,0,0,0-64.71,65.69l.23,31.6C95.27,188,108.19,160.56,141,159.29c0,0-3,42.93-40.56,53.1l26.53-.2a65.27,65.27,0,0,0,64.71-65.69l-.3-40.39Z"/>
      <path d="M.69,162.94a48.23,48.23,0,0,0,48.52,47.81l23.35-.18c-11.58-3.48-31.85-13-32.79-37.26,0,0,31.72,2.24,39.23,30l-.15-19.6a48.23,48.23,0,0,0-48.52-47.81l-29.84.23Z"/>
      <path d="M0,70.2l.28,37.33,32.1-.24a69.45,69.45,0,0,0,68.94-70L101,0,68.93.24A69.45,69.45,0,0,0,0,70.2Z"/>
    </g>
  </g>
</svg>
