<svg xmlns="http://www.w3.org/2000/svg" viewBox="0 0 648.33 766.52">
  <g>
    <g>
      <path d="M27,741.81a20,20,0,0,1-5.48-14.43V610H0V724.7a44.94,44.94,0,0,0,5,21.35,37.42,37.42,0,0,0,14.32,15q9.27,5.48,22,5.48H83.42v-19H41.37Q32.43,747.51,27,741.81Z"/>
      <path d="M117,606.61a14.14,14.14,0,1,0,9.73,4.14A13.31,13.31,0,0,0,117,606.61Z"/>
      <rect x="106.45" y="652.46" width="20.8" height="114.06"/>
      <path d="M237.61,657.38q-11.73-7.61-29.4-7.6-16.34,0-28.63,7.82A53.89,53.89,0,0,0,160.35,679a65.89,65.89,0,0,0-6.94,30.53q0,17.22,8.17,30.08a54.11,54.11,0,0,0,22.7,19.9q14.53,7,33.32,7h29.3V748.85H217.15a52.54,52.54,0,0,1-20-3.69,36.11,36.11,0,0,1-14.88-11,33.42,33.42,0,0,1-6.93-17.78h85a26.45,26.45,0,0,0,.56-4.69c.08-1.79.12-3.51.12-5.15a69,69,0,0,0-5.82-28.74A46.91,46.91,0,0,0,237.61,657.38Zm-62.5,44.5a46.86,46.86,0,0,1,2.68-12.52,36.09,36.09,0,0,1,6.49-11.29A32.31,32.31,0,0,1,194.45,670a29.83,29.83,0,0,1,13.76-3,33.94,33.94,0,0,1,12.86,2.23,27.56,27.56,0,0,1,9.17,5.93,30.88,30.88,0,0,1,5.92,8.27,36.47,36.47,0,0,1,3.13,9.4,49.32,49.32,0,0,1,.9,9Z"/>
      <path d="M307.28,733.19l52.55-33.32a31.71,31.71,0,0,0,10-10,23.85,23.85,0,0,0,3.46-12.64,25.13,25.13,0,0,0-12-21.47,23.39,23.39,0,0,0-12.41-3.35H284.69v17.67h57.92a7.66,7.66,0,0,1,5.82,2.35,7.2,7.2,0,0,1,2.24,5,9.39,9.39,0,0,1-1,4.25,11.06,11.06,0,0,1-4.36,4L292.74,719.1a34.33,34.33,0,0,0-10.17,10,23,23,0,0,0-3.47,12.63,24.73,24.73,0,0,0,3.24,12.42,24.24,24.24,0,0,0,21.58,12.41h67.32V748.85H310.19a7.92,7.92,0,0,1-6-2.35,7.2,7.2,0,0,1-2.24-5,9.39,9.39,0,0,1,1-4.25A11.07,11.07,0,0,1,307.28,733.19Z"/>
      <path d="M479.37,657.38q-11.75-7.61-29.41-7.6-16.33,0-28.63,7.82A53.89,53.89,0,0,0,402.1,679a66,66,0,0,0-6.93,30.53q0,17.22,8.16,30.08a54.17,54.17,0,0,0,22.7,19.9q14.54,7,33.32,7h29.3V748.85H458.9a52.58,52.58,0,0,1-20-3.69,36,36,0,0,1-14.87-11,33.43,33.43,0,0,1-6.94-17.78h85a27.41,27.41,0,0,0,.56-4.69c.07-1.79.11-3.51.11-5.15a69,69,0,0,0-5.82-28.74A46.89,46.89,0,0,0,479.37,657.38Zm-62.51,44.5a47.25,47.25,0,0,1,2.68-12.52A36.29,36.29,0,0,1,426,678.07,32.31,32.31,0,0,1,436.2,670,29.83,29.83,0,0,1,450,667a33.94,33.94,0,0,1,12.86,2.23,27.46,27.46,0,0,1,9.17,5.93,30.67,30.67,0,0,1,5.92,8.27,36.47,36.47,0,0,1,3.13,9.4,49.32,49.32,0,0,1,.9,9Z"/>
      <path d="M539.41,606.61a14.14,14.14,0,1,0,9.73,4.14A13.29,13.29,0,0,0,539.41,606.61Z"/>
      <rect x="528.9" y="652.46" width="20.8" height="114.06"/>
      <path d="M648.33,670.13V652.46H609.19V623.83H588.61v28.63H568.93v17.67h19.68v64q0,15,8.61,23.7T621,766.52h26.84V748.85h-23q-7.38,0-11.51-4.36c-2.77-2.91-4.14-6.82-4.14-11.74V670.13Z"/>
    </g>
    <g>
      <path d="M460.72,246.3c-82.93,0-150.39,67.47-150.39,150.4v72.89c11.15-36,41.41-99.13,117.12-101.5,0,0-7.74,99-94.47,121.78h61.2c82.93,0,150.39-67.47,150.39-150.4V246.3Z"/>
      <path d="M103.75,374.11a111.23,111.23,0,0,0,111.11,111.1H268.7c-26.63-8.23-73.23-30.59-75-86.52,0,0,73.12,5.72,90,69.79V423.27a111.23,111.23,0,0,0-111.1-111.1H103.75Z"/>
      <path d="M103.75,160.19V246.3h74.06A160.19,160.19,0,0,0,338,86.11V0H264A160.19,160.19,0,0,0,103.75,160.19Z"/>
    </g>
  </g>
</svg>
