<svg xmlns="http://www.w3.org/2000/svg" viewBox="0 0 440.82 489.87"><defs><style>.cls-1{fill:#fff;}</style></defs><g id="Layer_2" data-name="Layer 2"><g id="Layer_1-2" data-name="Layer 1"><path class="cls-1" d="M357,246.3c-82.93,0-150.4,67.47-150.4,150.4v72.89c11.15-36,41.42-99.13,117.13-101.5,0,0-7.74,99-94.48,121.78h61.2c82.93,0,150.4-67.47,150.4-150.4V246.3Z"/><path class="cls-1" d="M0,374.11a111.23,111.23,0,0,0,111.1,111.1H165c-26.64-8.23-73.23-30.59-75-86.52,0,0,73.13,5.72,90,69.79V423.27A111.23,111.23,0,0,0,68.82,312.17H0Z"/><path class="cls-1" d="M0,160.19V246.3H74.05A160.19,160.19,0,0,0,234.25,86.11V0H160.19A160.19,160.19,0,0,0,0,160.19Z"/></g></g></svg>